<svg id="Layer_1" data-name="Layer 1" xmlns="http://www.w3.org/2000/svg" viewBox="0 0 199 87"><defs><style>.cls-1,.cls-3{fill:#28a745;}.cls-2{fill:#fff;}.cls-3{font-size:27.84px;font-family:CenturyGothic, Century Gothic;}</style></defs><rect class="cls-1" x="2.43" y="1.94" width="44.11" height="82.82" rx="5.75"/><path class="cls-2" d="M30.74,42.14c6.67,1.12,12.08,4.32,12.08,11.09A12,12,0,0,1,36.09,64c-3.61,2-7.15,2.72-12,2.72H7v-2c5.9-.55,6.25-1.18,6.25-6.69v-28c0-5.79-.63-6.28-6.25-6.77V21.36H25.19c5.21,0,8.47.91,10.69,2.44A9.11,9.11,0,0,1,40,31.61C40,38.17,34.63,41.16,30.74,42.14Zm-8-.84c7.64,0,10.76-3.06,10.76-8.78,0-4.88-3-8.65-9.65-8.65-1.94,0-3.19.21-3.89.7s-.76,1.18-.76,3.41V41.3ZM19.22,57.9c0,5,1.18,6.28,6.11,6.28C30.74,64.18,36,61.25,36,53.93c0-7.12-5-10.19-13.47-10.19H19.22Z"/><path class="cls-2" d="M22.89,15.67V78.34l4.47-4.71V8.22Z"/><text class="cls-3" transform="translate(48.59 64.81)">ayarSekola</text></svg>